<mxfile host="app.diagrams.net" modified="2022-06-15T01:03:00.091Z" agent="5.0 (Windows NT 10.0; Win64; x64) AppleWebKit/537.36 (KHTML, like Gecko) Chrome/102.0.0.0 Safari/537.36" etag="JAyYPUIsGF1ADULEZmFm" version="20.0.1" type="github">
  <diagram id="3Et_ur0SdftDU5m_rW6D" name="Page-1">
    <mxGraphModel dx="1020" dy="555" grid="1" gridSize="10" guides="1" tooltips="1" connect="1" arrows="1" fold="1" page="1" pageScale="1" pageWidth="827" pageHeight="1169" math="0" shadow="0">
      <root>
        <mxCell id="0" />
        <mxCell id="1" parent="0" />
        <mxCell id="VeBGdPhU2O32ieuPiCMo-1" value="Realizar Feedback" style="shape=umlFrame;whiteSpace=wrap;html=1;width=120;height=30;boundedLbl=1;verticalAlign=middle;align=left;spacingLeft=5;" parent="1" vertex="1">
          <mxGeometry x="180" y="90" width="500" height="660" as="geometry" />
        </mxCell>
        <mxCell id="VeBGdPhU2O32ieuPiCMo-9" style="edgeStyle=none;shape=connector;rounded=0;orthogonalLoop=1;jettySize=auto;html=1;exitX=1;exitY=0.3333333333333333;exitDx=0;exitDy=0;exitPerimeter=0;entryX=0;entryY=0.5;entryDx=0;entryDy=0;labelBackgroundColor=default;fontFamily=Helvetica;fontSize=11;fontColor=default;endArrow=none;strokeColor=default;" parent="1" source="VeBGdPhU2O32ieuPiCMo-2" target="VeBGdPhU2O32ieuPiCMo-8" edge="1">
          <mxGeometry relative="1" as="geometry" />
        </mxCell>
        <mxCell id="VeBGdPhU2O32ieuPiCMo-2" value="Psicologo" style="shape=umlActor;verticalLabelPosition=bottom;verticalAlign=top;html=1;" parent="1" vertex="1">
          <mxGeometry x="130" y="330" width="30" height="60" as="geometry" />
        </mxCell>
        <mxCell id="VeBGdPhU2O32ieuPiCMo-3" value="Efetuar Login" style="ellipse;whiteSpace=wrap;html=1;" parent="1" vertex="1">
          <mxGeometry x="320" y="180" width="140" height="70" as="geometry" />
        </mxCell>
        <mxCell id="VeBGdPhU2O32ieuPiCMo-5" value="" style="endArrow=none;html=1;rounded=0;exitX=1;exitY=0.3333333333333333;exitDx=0;exitDy=0;exitPerimeter=0;entryX=0;entryY=0.5;entryDx=0;entryDy=0;" parent="1" source="VeBGdPhU2O32ieuPiCMo-2" target="VeBGdPhU2O32ieuPiCMo-3" edge="1">
          <mxGeometry width="50" height="50" relative="1" as="geometry">
            <mxPoint x="390" y="430" as="sourcePoint" />
            <mxPoint x="440" y="380" as="targetPoint" />
          </mxGeometry>
        </mxCell>
        <mxCell id="VeBGdPhU2O32ieuPiCMo-8" value="Acessar FormulÃ¡rios Respondidos" style="ellipse;whiteSpace=wrap;html=1;fontFamily=Helvetica;fontSize=11;fontColor=default;" parent="1" vertex="1">
          <mxGeometry x="320" y="370" width="140" height="70" as="geometry" />
        </mxCell>
        <mxCell id="VeBGdPhU2O32ieuPiCMo-11" value="Realizar Feedback" style="ellipse;whiteSpace=wrap;html=1;fontFamily=Helvetica;fontSize=11;fontColor=default;" parent="1" vertex="1">
          <mxGeometry x="320" y="530" width="140" height="70" as="geometry" />
        </mxCell>
        <mxCell id="dyO_rSOCRSo8fIJfwQId-3" value="Extend" style="endArrow=open;endSize=12;dashed=1;html=1;rounded=0;" parent="1" source="VeBGdPhU2O32ieuPiCMo-11" target="VeBGdPhU2O32ieuPiCMo-8" edge="1">
          <mxGeometry width="160" relative="1" as="geometry">
            <mxPoint x="330" y="400" as="sourcePoint" />
            <mxPoint x="490" y="400" as="targetPoint" />
            <Array as="points" />
          </mxGeometry>
        </mxCell>
        <mxCell id="B4P4vr3SKZTk2LiokGud-1" value="Include" style="endArrow=open;endSize=12;dashed=1;html=1;rounded=0;exitX=0.5;exitY=1;exitDx=0;exitDy=0;" parent="1" source="VeBGdPhU2O32ieuPiCMo-3" target="VeBGdPhU2O32ieuPiCMo-8" edge="1">
          <mxGeometry x="-0.125" width="160" relative="1" as="geometry">
            <mxPoint x="330" y="340" as="sourcePoint" />
            <mxPoint x="490" y="340" as="targetPoint" />
            <Array as="points">
              <mxPoint x="390" y="330" />
            </Array>
            <mxPoint as="offset" />
          </mxGeometry>
        </mxCell>
        <mxCell id="iZRrvj8xctjKm8sIAO2z-2" value="" style="endArrow=none;html=1;rounded=0;entryX=0;entryY=0.5;entryDx=0;entryDy=0;exitX=1;exitY=0.3333333333333333;exitDx=0;exitDy=0;exitPerimeter=0;" edge="1" parent="1" source="VeBGdPhU2O32ieuPiCMo-2" target="VeBGdPhU2O32ieuPiCMo-11">
          <mxGeometry width="50" height="50" relative="1" as="geometry">
            <mxPoint x="390" y="360" as="sourcePoint" />
            <mxPoint x="440" y="310" as="targetPoint" />
          </mxGeometry>
        </mxCell>
      </root>
    </mxGraphModel>
  </diagram>
</mxfile>
